<?xml version="1.0" encoding="UTF-8"?><svg id="Layer_1" xmlns="http://www.w3.org/2000/svg" viewBox="0 0 72 71.99"><defs><style>.cls-1{fill:#231f20;}</style></defs><path class="cls-1" d="M25.54,20.65c.78,0,1.51,.62,1.51,1.51v4.5c0,.52-.27,1.01-.72,1.28l-13.7,8.39v.22l13.7,8.39c.45,.27,.72,.76,.72,1.28v4.5c0,.88-.73,1.51-1.51,1.51-.27,0-.55-.08-.81-.24L6,39.97c-.43-.28-.69-.75-.69-1.27v-4.5c0-.51,.26-.99,.69-1.27l18.73-12.04c.26-.17,.54-.24,.81-.24m0-5h0c-1.24,0-2.46,.36-3.51,1.04L3.3,28.73c-1.87,1.2-2.99,3.25-2.99,5.47v4.5c0,2.22,1.12,4.27,2.99,5.47l18.73,12.04c1.05,.68,2.27,1.04,3.51,1.04,3.59,0,6.51-2.92,6.51-6.51v-4.5c0-2.25-1.19-4.37-3.11-5.55l-6.92-4.24,6.92-4.24c1.92-1.17,3.11-3.3,3.11-5.55v-4.5c0-1.8-.71-3.47-2.01-4.7-1.22-1.16-2.82-1.81-4.5-1.81h0Z"/><path class="cls-1" d="M46.45,20.29c.27,0,.55,.08,.81,.24l18.73,12.04c.43,.28,.69,.75,.69,1.27v4.5c0,.51-.26,.99-.69,1.27l-18.73,12.04c-.26,.17-.54,.24-.81,.24-.78,0-1.51-.62-1.51-1.51v-4.5c0-.52,.27-1.01,.72-1.28l13.7-8.39v-.22l-13.7-8.39c-.45-.27-.72-.76-.72-1.28v-4.5c0-.88,.73-1.51,1.51-1.51m0-5h0c-3.59,0-6.51,2.92-6.51,6.51v4.5c0,2.25,1.19,4.37,3.11,5.55l6.92,4.24-6.92,4.24c-1.92,1.17-3.11,3.3-3.11,5.55v4.5c0,3.59,2.92,6.51,6.51,6.51,1.24,0,2.46-.36,3.51-1.04l18.73-12.04c1.87-1.2,2.99-3.25,2.99-5.47v-4.5c0-2.22-1.12-4.27-2.99-5.47l-18.73-12.04c-1.05-.68-2.27-1.04-3.51-1.04h0Z"/></svg>