<?xml version="1.0" encoding="utf-8"?>
<!-- Generator: Adobe Illustrator 26.5.0, SVG Export Plug-In . SVG Version: 6.00 Build 0)  -->
<svg version="1.1"
	 id="Layer_1" xmlns:cc="http://creativecommons.org/ns#" xmlns:rdf="http://www.w3.org/1999/02/22-rdf-syntax-ns#" xmlns:dc="http://purl.org/dc/elements/1.1/"
	 xmlns="http://www.w3.org/2000/svg" xmlns:xlink="http://www.w3.org/1999/xlink" x="0px" y="0px" viewBox="0 0 517.3 517.3"
	 style="enable-background:new 0 0 517.3 517.3;" xml:space="preserve">
<path d="M50.5,0h416.2c27.9,0,50.5,22.6,50.5,50.5v416.2c0,27.9-22.6,50.5-50.5,50.5H50.5C22.6,517.2,0,494.6,0,466.7V50.5
	C0,22.6,22.6,0,50.5,0z M320.2,411.1v50.5c8.2,4.2,18.2,7.4,29.3,9.5s23.2,3.1,35.4,3.1s23.2-1.1,34.3-3.4
	c11.1-2.3,20.2-6.2,28.3-11.1c8.2-5.4,15.2-12.1,19.2-21.2c4-9.1,7.2-19.2,7.2-32.3c0-9.2-1.4-17.2-4.1-24.2
	c-2.7-7.1-6.7-13.1-12.1-18.2c-5.2-5.4-11.1-10.1-18.2-14.1c-7.1-4-15.2-8.3-24.2-12.1c-6.7-2.7-12.1-5.4-18.2-8
	c-5.3-2.6-9.8-5.3-13.1-7.9c-3.7-2.7-6.6-5.6-8.6-8.5c-2-3-3-6.4-3-10.1c0-3.4,0.9-6.6,2.7-9.4s4.3-5.2,7.6-7.2
	c3.2-2,7.3-3.5,12.1-4.6c4.7-1.1,10-1.6,16.2-1.6c4.2,0,8.7,0.3,13.1,0.9c4.6,0.6,9.4,1.6,14.1,2.9c4.7,1.3,9.4,2.9,14.1,4.9
	c4.4,2,8.6,4.3,12.1,7v-47.5c-7.7-2.9-16.2-5.2-25.3-6.6c-9.1-1.4-19.2-2.1-31.3-2.1c-12.1,0-23.2,1.3-34.3,3.8
	c-11.1,2.5-20.2,6.6-28.3,12.1C337,261.2,331,267.9,326,277c-4.7,8.5-7.1,18.2-7.1,30.3c0,15.2,4.3,28.3,13.1,38.4
	c8.7,11.1,22.2,19.2,39.4,27.3c7,2.8,13.1,5.7,19.2,8.4c6.1,2.7,11.1,5.6,15.2,8.5c4.3,2.9,7.8,6.2,10.1,9.6
	c2.5,3.4,3.8,7.5,3.8,12.1c0,3.2-0.8,6.3-2.3,9.1s-3.9,5.3-7.2,7.3c-3.2,2-7.2,3.6-12.1,4.8c-4.7,1.1-10.1,1.7-17.2,1.7
	c-11.1,0-22.2-1.9-32.3-5.8c-11.1-3.8-21.2-9.6-30.3-17.2L320.2,411.1z M235.4,286.9H300v-41.4H119.2v41.4h64.7v184.9h51.5V286.9z"
	/>
</svg>
